<svg xmlns="http://www.w3.org/2000/svg" xmlns:xlink="http://www.w3.org/1999/xlink" width="500" zoomAndPan="magnify" viewBox="0 0 375 374.999991" height="500" preserveAspectRatio="xMidYMid meet" version="1.0">
    <defs>
<g/><clipPath id="c93459df35"><path d="M 108.417969 190.78125 L 179.667969 190.78125 L 179.667969 267.28125 L 108.417969 267.28125 Z M 108.417969 190.78125 " clip-rule="nonzero"/></clipPath><clipPath id="5862527972"><path d="M 21.574219 107.449219 L 179.824219 107.449219 L 179.824219 190.699219 L 21.574219 190.699219 Z M 21.574219 107.449219 " clip-rule="nonzero"/></clipPath></defs><g clip-path="url(#c93459df35)"><path fill="#ffffde" d="M 23.1875 109.289062 L 178.207031 109.289062 C 179.097656 109.289062 179.820312 110.011719 179.820312 110.902344 L 179.820312 265.921875 C 179.820312 266.816406 179.097656 267.539062 178.207031 267.539062 L 23.1875 267.539062 C 22.292969 267.539062 21.570312 266.816406 21.570312 265.921875 L 21.570312 110.902344 C 21.570312 110.011719 22.292969 109.289062 23.1875 109.289062 Z M 24.800781 264.308594 L 176.589844 264.308594 L 176.589844 112.519531 L 24.800781 112.519531 Z M 24.800781 264.308594 " fill-opacity="1" fill-rule="nonzero"/></g><g clip-path="url(#5862527972)"><path fill="#ffffde" d="M 179.824219 264.085938 L 179.824219 109.0625 C 179.824219 108.171875 179.101562 107.449219 178.207031 107.449219 L 23.1875 107.449219 C 22.296875 107.449219 21.574219 108.171875 21.574219 109.0625 L 21.574219 264.085938 C 21.574219 264.976562 22.296875 265.699219 23.1875 265.699219 L 178.207031 265.699219 C 179.101562 265.699219 179.824219 264.976562 179.824219 264.085938 Z M 24.804688 262.46875 L 24.804688 110.679688 L 176.59375 110.679688 L 176.59375 262.46875 Z M 24.804688 262.46875 " fill-opacity="1" fill-rule="nonzero"/></g><g fill="#ffffde" fill-opacity="1"><g transform="translate(187.499992, 203.624987)"><g><path d="M 24.765625 -8.796875 L 6.65625 -8.796875 L 2.671875 0 L 0.21875 0 L 14.59375 -31.234375 L 16.875 -31.234375 L 31.234375 0 L 28.78125 0 Z M 23.921875 -10.703125 L 15.703125 -28.734375 L 7.546875 -10.703125 Z M 23.921875 -10.703125 "/></g></g></g><g fill="#ffffde" fill-opacity="1"><g transform="translate(215.568768, 203.624987)"><g><path d="M 16.421875 -23.46875 C 18.585938 -23.46875 20.550781 -22.960938 22.3125 -21.953125 C 24.070312 -20.941406 25.445312 -19.539062 26.4375 -17.75 C 27.4375 -15.96875 27.9375 -13.929688 27.9375 -11.640625 C 27.9375 -9.359375 27.4375 -7.316406 26.4375 -5.515625 C 25.445312 -3.710938 24.070312 -2.3125 22.3125 -1.3125 C 20.550781 -0.320312 18.585938 0.171875 16.421875 0.171875 C 14.367188 0.171875 12.507812 -0.304688 10.84375 -1.265625 C 9.175781 -2.234375 7.882812 -3.582031 6.96875 -5.3125 L 6.96875 8.65625 L 4.734375 8.65625 L 4.734375 -23.296875 L 6.875 -23.296875 L 6.875 -17.8125 C 7.789062 -19.59375 9.085938 -20.976562 10.765625 -21.96875 C 12.453125 -22.96875 14.335938 -23.46875 16.421875 -23.46875 Z M 16.28125 -1.828125 C 18.070312 -1.828125 19.679688 -2.242188 21.109375 -3.078125 C 22.535156 -3.910156 23.65625 -5.070312 24.46875 -6.5625 C 25.289062 -8.050781 25.703125 -9.742188 25.703125 -11.640625 C 25.703125 -13.546875 25.289062 -15.242188 24.46875 -16.734375 C 23.65625 -18.222656 22.535156 -19.382812 21.109375 -20.21875 C 19.679688 -21.050781 18.070312 -21.46875 16.28125 -21.46875 C 14.5 -21.46875 12.898438 -21.050781 11.484375 -20.21875 C 10.078125 -19.382812 8.960938 -18.222656 8.140625 -16.734375 C 7.328125 -15.242188 6.921875 -13.546875 6.921875 -11.640625 C 6.921875 -9.742188 7.328125 -8.050781 8.140625 -6.5625 C 8.960938 -5.070312 10.078125 -3.910156 11.484375 -3.078125 C 12.898438 -2.242188 14.5 -1.828125 16.28125 -1.828125 Z M 16.28125 -1.828125 "/></g></g></g><g fill="#ffffde" fill-opacity="1"><g transform="translate(242.298803, 203.624987)"><g><path d="M 13.828125 0.171875 C 11.628906 0.171875 9.644531 -0.332031 7.875 -1.34375 C 6.101562 -2.351562 4.710938 -3.753906 3.703125 -5.546875 C 2.691406 -7.347656 2.1875 -9.378906 2.1875 -11.640625 C 2.1875 -13.898438 2.691406 -15.929688 3.703125 -17.734375 C 4.710938 -19.535156 6.101562 -20.941406 7.875 -21.953125 C 9.644531 -22.960938 11.628906 -23.46875 13.828125 -23.46875 C 16.035156 -23.46875 18.023438 -22.960938 19.796875 -21.953125 C 21.566406 -20.941406 22.957031 -19.535156 23.96875 -17.734375 C 24.976562 -15.929688 25.484375 -13.898438 25.484375 -11.640625 C 25.484375 -9.378906 24.976562 -7.347656 23.96875 -5.546875 C 22.957031 -3.753906 21.566406 -2.351562 19.796875 -1.34375 C 18.023438 -0.332031 16.035156 0.171875 13.828125 0.171875 Z M 13.828125 -1.828125 C 15.617188 -1.828125 17.21875 -2.242188 18.625 -3.078125 C 20.039062 -3.910156 21.15625 -5.070312 21.96875 -6.5625 C 22.789062 -8.050781 23.203125 -9.742188 23.203125 -11.640625 C 23.203125 -13.546875 22.789062 -15.242188 21.96875 -16.734375 C 21.15625 -18.222656 20.039062 -19.382812 18.625 -20.21875 C 17.21875 -21.050781 15.617188 -21.46875 13.828125 -21.46875 C 12.046875 -21.46875 10.445312 -21.050781 9.03125 -20.21875 C 7.625 -19.382812 6.507812 -18.222656 5.6875 -16.734375 C 4.875 -15.242188 4.46875 -13.546875 4.46875 -11.640625 C 4.46875 -9.742188 4.875 -8.050781 5.6875 -6.5625 C 6.507812 -5.070312 7.625 -3.910156 9.03125 -3.078125 C 10.445312 -2.242188 12.046875 -1.828125 13.828125 -1.828125 Z M 13.828125 -1.828125 "/></g></g></g><g fill="#ffffde" fill-opacity="1"><g transform="translate(266.574461, 203.624987)"><g><path d="M 16.28125 -1.46875 C 15.71875 -0.9375 15.007812 -0.53125 14.15625 -0.25 C 13.3125 0.03125 12.429688 0.171875 11.515625 0.171875 C 9.492188 0.171875 7.929688 -0.382812 6.828125 -1.5 C 5.722656 -2.613281 5.171875 -4.164062 5.171875 -6.15625 L 5.171875 -21.375 L 0.890625 -21.375 L 0.890625 -23.296875 L 5.171875 -23.296875 L 5.171875 -28.375 L 7.40625 -28.375 L 7.40625 -23.296875 L 14.8125 -23.296875 L 14.8125 -21.375 L 7.40625 -21.375 L 7.40625 -6.375 C 7.40625 -4.863281 7.769531 -3.710938 8.5 -2.921875 C 9.226562 -2.128906 10.304688 -1.734375 11.734375 -1.734375 C 13.191406 -1.734375 14.394531 -2.164062 15.34375 -3.03125 Z M 16.28125 -1.46875 "/></g></g></g><g fill="#ffffde" fill-opacity="1"><g transform="translate(280.943364, 203.624987)"><g><path d="M 24.40625 -11.109375 L 4.375 -11.109375 C 4.4375 -9.296875 4.894531 -7.679688 5.75 -6.265625 C 6.613281 -4.859375 7.78125 -3.765625 9.25 -2.984375 C 10.726562 -2.210938 12.390625 -1.828125 14.234375 -1.828125 C 15.753906 -1.828125 17.160156 -2.101562 18.453125 -2.65625 C 19.742188 -3.207031 20.820312 -4.019531 21.6875 -5.09375 L 22.984375 -3.609375 C 21.972656 -2.390625 20.703125 -1.453125 19.171875 -0.796875 C 17.640625 -0.148438 15.976562 0.171875 14.1875 0.171875 C 11.863281 0.171875 9.796875 -0.332031 7.984375 -1.34375 C 6.171875 -2.351562 4.75 -3.75 3.71875 -5.53125 C 2.695312 -7.320312 2.1875 -9.359375 2.1875 -11.640625 C 2.1875 -13.898438 2.671875 -15.929688 3.640625 -17.734375 C 4.609375 -19.535156 5.9375 -20.941406 7.625 -21.953125 C 9.320312 -22.960938 11.226562 -23.46875 13.34375 -23.46875 C 15.457031 -23.46875 17.351562 -22.96875 19.03125 -21.96875 C 20.707031 -20.976562 22.03125 -19.585938 23 -17.796875 C 23.96875 -16.015625 24.453125 -13.992188 24.453125 -11.734375 Z M 13.34375 -21.515625 C 11.707031 -21.515625 10.234375 -21.148438 8.921875 -20.421875 C 7.617188 -19.691406 6.570312 -18.660156 5.78125 -17.328125 C 4.988281 -16.003906 4.535156 -14.515625 4.421875 -12.859375 L 22.265625 -12.859375 C 22.179688 -14.515625 21.734375 -16 20.921875 -17.3125 C 20.117188 -18.625 19.0625 -19.648438 17.75 -20.390625 C 16.445312 -21.140625 14.976562 -21.515625 13.34375 -21.515625 Z M 13.34375 -21.515625 "/></g></g></g><g fill="#ffffde" fill-opacity="1"><g transform="translate(304.192642, 203.624987)"><g><path d="M 13.03125 -12.453125 L 6.96875 -6.921875 L 6.96875 0 L 4.734375 0 L 4.734375 -33.109375 L 6.96875 -33.109375 L 6.96875 -9.6875 L 21.859375 -23.296875 L 24.71875 -23.296875 L 14.6875 -13.875 L 25.703125 0 L 22.9375 0 Z M 13.03125 -12.453125 "/></g></g></g></svg>